# xmcd
#
# Track frame offsets:
#	150
#	14086
#	26855
#	40501
#	53822
#	73108
#	92775
#	105783
#	118724
#	143860
#	158319
#	170395
#
# Disc length: 2447
#
# Revision: 0
# Processed by: cddbd v1.5.2PL0 Copyright (c) Steve Scherf et al.
# Submitted via: Broken X Disk Manager 4.07.2267
#
DISCID=94098d0c
DTITLE=Commodores - The Commodores
DYEAR=2006
DGENRE=Pop/Funk
TTITLE0=Rise Up
TTITLE1=Cowboys To Girls (Instrumental)
TTITLE2=I Know I'm Losing You
TTITLE3=Love Canoe (Instrumental)
TTITLE4=Take My Hand
TTITLE5=Everything Remind Me Of You
TTITLE6=Baby This Is Forever (Instrumental)
TTITLE7=Keep On Dancing
TTITLE8=Medley (Get Busy - Living Edge - No Tricks)
TTITLE9=Sing A Simple Song (Instrumental)
TTITLE10=Who's Making Love (Instrumental)
TTITLE11=Come By Here (Instrumental)
EXTD=
EXTT0=
EXTT1=
EXTT2=
EXTT3=
EXTT4=
EXTT5=^
EXTT6=
EXTT7=
EXTT8=
EXTT9=
EXTT10=
EXTT11=
PLAYORDER=
